<?xml version="1.0" standalone="no"?>
<!DOCTYPE svg PUBLIC "-//W3C//DTD SVG 20010904//EN"
 "http://www.w3.org/TR/2001/REC-SVG-20010904/DTD/svg10.dtd">
<svg version="1.0" xmlns="http://www.w3.org/2000/svg"
 width="285.000000pt" height="184.000000pt" viewBox="0 0 285.000000 184.000000"
 preserveAspectRatio="xMidYMid meet">

<g transform="translate(0.000000,184.000000) scale(0.100000,-0.100000)"
fill="#000000" stroke="none">
<path d="M1225 1559 c-128 -10 -263 -41 -340 -79 -71 -34 -102 -79 -160 -230
-20 -52 -40 -99 -44 -103 -4 -4 -20 3 -36 15 -22 17 -45 23 -94 26 -56 3 -71
0 -101 -20 -43 -29 -58 -74 -39 -114 20 -40 92 -62 159 -48 l49 10 -16 -35
c-68 -155 -68 -154 -68 -246 0 -72 4 -98 21 -130 12 -22 29 -55 39 -74 11 -21
21 -70 26 -121 8 -99 26 -143 72 -170 27 -17 51 -20 153 -20 115 0 122 1 166
29 36 23 47 36 52 65 l7 36 359 0 360 0 6 -27 c10 -49 12 -52 54 -79 40 -26
48 -28 150 -26 188 2 227 32 243 190 8 82 16 107 49 172 40 75 40 75 36 171
-3 89 -7 104 -43 177 l-40 80 32 -5 c90 -15 183 30 183 89 0 65 -48 98 -141
98 -41 0 -60 -6 -86 -26 -42 -32 -47 -28 -83 64 -64 165 -129 247 -220 277
-74 25 -223 45 -395 55 -178 10 -170 10 -310 -1z m504 -100 c64 -6 138 -19
167 -30 51 -19 104 -67 104 -93 0 -16 -81 -63 -210 -122 -58 -26 -106 -48
-107 -49 -2 -1 2 -16 7 -34 l9 -33 -42 6 c-23 4 -71 18 -106 32 -70 28 -154
33 -266 14 -134 -22 -229 -6 -238 40 -6 27 -12 30 -169 97 l-37 16 19 37 c50
98 172 126 545 129 116 0 261 -4 324 -10z m-745 -265 c9 -8 16 -23 15 -32 -1
-34 -117 -327 -131 -330 -7 -1 -21 3 -31 11 -19 13 -11 40 104 345 10 26 22
28 43 6z m816 -63 c11 -22 31 -72 44 -113 14 -40 37 -102 51 -137 26 -68 25
-79 -13 -83 -21 -3 -28 8 -63 102 -66 173 -83 238 -69 255 19 23 28 18 50 -24z
m-240 -23 c36 -14 79 -29 95 -34 26 -8 35 -22 67 -100 49 -120 57 -168 31
-183 -24 -12 -23 -12 -201 137 -111 92 -126 102 -163 102 -43 0 -74 -13 -99
-41 -24 -28 -57 -33 -65 -10 -12 39 72 139 130 154 40 11 142 -1 205 -25z
m-348 2 l48 0 -30 -47 c-20 -31 -30 -60 -30 -85 0 -37 1 -38 34 -38 22 0 45 9
64 25 33 28 73 45 106 45 13 0 50 -25 92 -62 38 -35 104 -89 146 -121 75 -57
106 -101 94 -132 -9 -24 -67 -18 -107 11 -19 14 -47 32 -64 40 l-30 15 35 -33
c19 -18 46 -41 59 -50 18 -13 22 -22 17 -42 -10 -40 -51 -34 -110 14 -26 22
-50 40 -52 40 -11 0 18 -40 42 -59 20 -16 25 -26 20 -46 -4 -14 -11 -25 -17
-25 -18 0 -53 21 -86 53 -37 35 -44 24 -12 -17 25 -32 21 -60 -9 -64 -31 -5
-52 15 -52 48 0 22 -5 29 -29 33 -20 4 -32 15 -39 35 -7 21 -18 31 -41 35 -21
4 -34 15 -41 31 -6 18 -19 27 -44 31 -27 5 -37 14 -45 36 -11 31 -44 39 -80
19 -14 -7 -26 -2 -51 19 l-33 28 11 54 c6 30 25 92 43 138 l32 83 56 -6 c31
-3 77 -5 103 -6z m1027 -301 c18 -81 -10 -189 -62 -246 -12 -14 -22 -41 -25
-73 l-5 -50 -717 0 -717 0 -6 50 c-4 36 -16 63 -41 96 -19 25 -40 62 -47 81
-13 42 -7 134 12 180 l14 32 123 -50 c68 -27 127 -49 132 -49 6 0 16 14 22 30
l13 31 38 -32 c21 -17 45 -49 53 -70 12 -28 23 -39 43 -44 17 -3 33 -16 39
-31 7 -13 24 -29 38 -34 15 -6 39 -24 54 -40 15 -17 37 -30 49 -30 11 0 25 -8
30 -19 15 -27 146 -39 190 -17 16 9 38 16 48 16 10 0 30 8 43 18 13 9 45 24
70 32 34 11 46 21 48 38 3 16 12 25 33 29 33 6 49 29 49 67 0 14 10 36 21 47
l22 22 14 -27 c7 -14 15 -26 16 -26 1 0 83 36 182 79 l180 78 17 -21 c9 -11
22 -42 27 -67z m-1137 -54 c-5 -30 -39 -40 -47 -13 -8 24 10 47 34 41 13 -3
17 -11 13 -28z m89 -57 c-10 -28 -37 -46 -50 -33 -16 18 6 55 33 55 22 0 24
-3 17 -22z m72 -44 c19 -7 11 -41 -13 -54 -14 -7 -19 -5 -23 11 -10 39 4 56
36 43z"/>
</g>
</svg>
